<mxfile>
    <diagram id="B9imWvU3-mCyOA17thxm" name="Page-1">
        <mxGraphModel dx="1315" dy="2105" grid="1" gridSize="10" guides="1" tooltips="1" connect="1" arrows="1" fold="1" page="1" pageScale="1" pageWidth="850" pageHeight="1100" math="0" shadow="0">
            <root>
                <mxCell id="0"/>
                <mxCell id="1" parent="0"/>
                <mxCell id="88" style="edgeStyle=orthogonalEdgeStyle;rounded=0;orthogonalLoop=1;jettySize=auto;html=1;exitX=0.5;exitY=0;exitDx=0;exitDy=0;" edge="1" parent="1" source="47" target="71">
                    <mxGeometry relative="1" as="geometry"/>
                </mxCell>
                <mxCell id="96" value="&lt;span style=&quot;font-size: 24px&quot;&gt;Render&lt;/span&gt;" style="edgeLabel;html=1;align=center;verticalAlign=middle;resizable=0;points=[];" vertex="1" connectable="0" parent="88">
                    <mxGeometry x="-0.8547" y="-2" relative="1" as="geometry">
                        <mxPoint y="1" as="offset"/>
                    </mxGeometry>
                </mxCell>
                <mxCell id="47" value="&lt;font style=&quot;font-size: 28px&quot;&gt;Search Server&lt;/font&gt;" style="shape=hexagon;perimeter=hexagonPerimeter2;whiteSpace=wrap;html=1;fixedSize=1;" vertex="1" parent="1">
                    <mxGeometry x="790" y="1540" width="130" height="130" as="geometry"/>
                </mxCell>
                <mxCell id="87" style="edgeStyle=orthogonalEdgeStyle;rounded=0;orthogonalLoop=1;jettySize=auto;html=1;exitX=0.5;exitY=0;exitDx=0;exitDy=0;entryX=0.5;entryY=1;entryDx=0;entryDy=0;" edge="1" parent="1" source="49" target="71">
                    <mxGeometry relative="1" as="geometry"/>
                </mxCell>
                <mxCell id="95" value="&lt;span style=&quot;font-size: 24px&quot;&gt;Render&lt;/span&gt;" style="edgeLabel;html=1;align=center;verticalAlign=middle;resizable=0;points=[];" vertex="1" connectable="0" parent="87">
                    <mxGeometry x="-0.4357" y="-6" relative="1" as="geometry">
                        <mxPoint y="1" as="offset"/>
                    </mxGeometry>
                </mxCell>
                <mxCell id="49" value="&lt;span style=&quot;font-size: 28px&quot;&gt;Product Server&lt;/span&gt;" style="shape=hexagon;perimeter=hexagonPerimeter2;whiteSpace=wrap;html=1;fixedSize=1;" vertex="1" parent="1">
                    <mxGeometry x="1440" y="1540" width="130" height="130" as="geometry"/>
                </mxCell>
                <mxCell id="28" value="" style="strokeWidth=1;shadow=0;dashed=0;align=center;html=1;shape=mxgraph.mockup.containers.browserWindow;rSize=0;strokeColor=#666666;strokeColor2=#008cff;strokeColor3=#c4c4c4;mainText=,;recursiveResize=0;container=0;" vertex="1" parent="1">
                    <mxGeometry x="1078" y="-60" width="850" height="630" as="geometry"/>
                </mxCell>
                <mxCell id="45" value="" style="rounded=0;whiteSpace=wrap;html=1;strokeWidth=4;dashed=1;fillColor=none;" vertex="1" parent="1">
                    <mxGeometry x="1738" y="80" width="180" height="420" as="geometry"/>
                </mxCell>
                <mxCell id="53" value="" style="rounded=0;whiteSpace=wrap;html=1;strokeWidth=4;dashed=1;fillColor=none;" vertex="1" parent="1">
                    <mxGeometry x="605" y="1710" width="540" height="80" as="geometry"/>
                </mxCell>
                <mxCell id="54" value="&lt;font color=&quot;#000000&quot;&gt;&lt;span style=&quot;font-size: 24px&quot;&gt;&lt;b&gt;Please enter keywords ...&lt;/b&gt;&lt;/span&gt;&lt;/font&gt;" style="rounded=1;arcSize=9;fillColor=#F7F8F9;align=left;spacingLeft=5;strokeColor=#DEE1E6;html=1;strokeWidth=2;fontSize=12" vertex="1" parent="1">
                    <mxGeometry x="655" y="1730" width="400" height="40" as="geometry"/>
                </mxCell>
                <mxCell id="55" value="" style="html=1;verticalLabelPosition=bottom;align=center;labelBackgroundColor=#ffffff;verticalAlign=top;strokeWidth=10;shadow=0;dashed=0;shape=mxgraph.ios7.icons.looking_glass;" vertex="1" parent="1">
                    <mxGeometry x="1085" y="1732.5" width="40" height="37.5" as="geometry"/>
                </mxCell>
                <mxCell id="56" value="&lt;b&gt;&lt;font style=&quot;font-size: 21px&quot;&gt;Search Fragment&lt;/font&gt;&lt;/b&gt;" style="text;html=1;strokeColor=none;fillColor=none;align=center;verticalAlign=middle;whiteSpace=wrap;rounded=0;dashed=1;" vertex="1" parent="1">
                    <mxGeometry x="600" y="1690" width="180" height="20" as="geometry"/>
                </mxCell>
                <mxCell id="29" value="" style="rounded=0;whiteSpace=wrap;html=1;strokeWidth=4;dashed=1;fillColor=none;" vertex="1" parent="1">
                    <mxGeometry x="1128" y="170" width="540" height="320" as="geometry"/>
                </mxCell>
                <mxCell id="30" value="" style="rounded=0;whiteSpace=wrap;html=1;strokeWidth=4;dashed=1;fillColor=none;" vertex="1" parent="1">
                    <mxGeometry x="1128" y="80" width="540" height="80" as="geometry"/>
                </mxCell>
                <mxCell id="31" value="Page 1" style="strokeWidth=1;shadow=0;dashed=0;align=center;html=1;shape=mxgraph.mockup.containers.anchor;fontSize=17;fontColor=#666666;align=left;" vertex="1" parent="1">
                    <mxGeometry x="1138" y="-48" width="110" height="26" as="geometry"/>
                </mxCell>
                <mxCell id="32" value="https://www.draw.io" style="strokeWidth=1;shadow=0;dashed=0;align=center;html=1;shape=mxgraph.mockup.containers.anchor;rSize=0;fontSize=17;fontColor=#666666;align=left;" vertex="1" parent="1">
                    <mxGeometry x="1208" width="250" height="26" as="geometry"/>
                </mxCell>
                <mxCell id="33" value="&lt;font color=&quot;#000000&quot;&gt;&lt;span style=&quot;font-size: 24px&quot;&gt;&lt;b&gt;Please enter keywords ...&lt;/b&gt;&lt;/span&gt;&lt;/font&gt;" style="rounded=1;arcSize=9;fillColor=#F7F8F9;align=left;spacingLeft=5;strokeColor=#DEE1E6;html=1;strokeWidth=2;fontSize=12" vertex="1" parent="1">
                    <mxGeometry x="1178" y="100" width="400" height="40" as="geometry"/>
                </mxCell>
                <mxCell id="34" value="" style="html=1;verticalLabelPosition=bottom;align=center;labelBackgroundColor=#ffffff;verticalAlign=top;strokeWidth=10;shadow=0;dashed=0;shape=mxgraph.ios7.icons.looking_glass;" vertex="1" parent="1">
                    <mxGeometry x="1608" y="102.5" width="40" height="37.5" as="geometry"/>
                </mxCell>
                <mxCell id="35" value="&lt;b&gt;&lt;font style=&quot;font-size: 24px&quot;&gt;Product 1&lt;/font&gt;&lt;/b&gt;" style="rounded=1;whiteSpace=wrap;html=1;strokeWidth=10;" vertex="1" parent="1">
                    <mxGeometry x="1178" y="200" width="410" height="60" as="geometry"/>
                </mxCell>
                <mxCell id="36" value="&lt;span&gt;&lt;b&gt;&lt;font style=&quot;font-size: 24px&quot;&gt;Product 2&lt;/font&gt;&lt;/b&gt;&lt;/span&gt;" style="rounded=1;whiteSpace=wrap;html=1;strokeWidth=10;" vertex="1" parent="1">
                    <mxGeometry x="1178" y="290" width="410" height="60" as="geometry"/>
                </mxCell>
                <mxCell id="37" value="&lt;span&gt;&lt;b&gt;&lt;font style=&quot;font-size: 24px&quot;&gt;Product 3&lt;/font&gt;&lt;/b&gt;&lt;/span&gt;" style="rounded=1;whiteSpace=wrap;html=1;strokeWidth=10;" vertex="1" parent="1">
                    <mxGeometry x="1178" y="380" width="410" height="60" as="geometry"/>
                </mxCell>
                <mxCell id="38" value="" style="ellipse;whiteSpace=wrap;html=1;aspect=fixed;strokeWidth=10;" vertex="1" parent="1">
                    <mxGeometry x="1798" y="190" width="80" height="80" as="geometry"/>
                </mxCell>
                <mxCell id="39" value="" style="ellipse;whiteSpace=wrap;html=1;aspect=fixed;strokeWidth=10;" vertex="1" parent="1">
                    <mxGeometry x="1798" y="290" width="80" height="80" as="geometry"/>
                </mxCell>
                <mxCell id="40" value="" style="ellipse;whiteSpace=wrap;html=1;aspect=fixed;strokeWidth=10;" vertex="1" parent="1">
                    <mxGeometry x="1798" y="390" width="80" height="80" as="geometry"/>
                </mxCell>
                <mxCell id="41" value="&lt;b&gt;&lt;font style=&quot;font-size: 24px&quot;&gt;Recommended for you&lt;/font&gt;&lt;/b&gt;" style="text;html=1;strokeColor=none;fillColor=none;align=center;verticalAlign=middle;whiteSpace=wrap;rounded=0;" vertex="1" parent="1">
                    <mxGeometry x="1738" y="85" width="180" height="70" as="geometry"/>
                </mxCell>
                <mxCell id="42" value="&lt;b&gt;&lt;font style=&quot;font-size: 21px&quot;&gt;Search Team&lt;/font&gt;&lt;/b&gt;" style="text;html=1;strokeColor=none;fillColor=none;align=center;verticalAlign=middle;whiteSpace=wrap;rounded=0;dashed=1;" vertex="1" parent="1">
                    <mxGeometry x="1123" y="60" width="140" height="20" as="geometry"/>
                </mxCell>
                <mxCell id="43" value="&lt;b&gt;&lt;font style=&quot;font-size: 21px&quot;&gt;Product Team&lt;/font&gt;&lt;/b&gt;" style="text;html=1;strokeColor=none;fillColor=none;align=center;verticalAlign=middle;whiteSpace=wrap;rounded=0;dashed=1;" vertex="1" parent="1">
                    <mxGeometry x="1128" y="500" width="150" height="20" as="geometry"/>
                </mxCell>
                <mxCell id="44" value="&lt;b&gt;&lt;font style=&quot;font-size: 21px&quot;&gt;Inspire Team&lt;/font&gt;&lt;/b&gt;" style="text;html=1;strokeColor=none;fillColor=none;align=center;verticalAlign=middle;whiteSpace=wrap;rounded=0;dashed=1;" vertex="1" parent="1">
                    <mxGeometry x="1730" y="510" width="150" height="20" as="geometry"/>
                </mxCell>
                <mxCell id="58" value="" style="rounded=0;whiteSpace=wrap;html=1;strokeWidth=4;dashed=1;fillColor=none;" vertex="1" parent="1">
                    <mxGeometry x="1240" y="1710" width="540" height="320" as="geometry"/>
                </mxCell>
                <mxCell id="59" value="&lt;b&gt;&lt;font style=&quot;font-size: 24px&quot;&gt;Product 1&lt;/font&gt;&lt;/b&gt;" style="rounded=1;whiteSpace=wrap;html=1;strokeWidth=10;" vertex="1" parent="1">
                    <mxGeometry x="1290" y="1740" width="410" height="60" as="geometry"/>
                </mxCell>
                <mxCell id="60" value="&lt;span&gt;&lt;b&gt;&lt;font style=&quot;font-size: 24px&quot;&gt;Product 2&lt;/font&gt;&lt;/b&gt;&lt;/span&gt;" style="rounded=1;whiteSpace=wrap;html=1;strokeWidth=10;" vertex="1" parent="1">
                    <mxGeometry x="1290" y="1830" width="410" height="60" as="geometry"/>
                </mxCell>
                <mxCell id="61" value="&lt;span&gt;&lt;b&gt;&lt;font style=&quot;font-size: 24px&quot;&gt;Product 3&lt;/font&gt;&lt;/b&gt;&lt;/span&gt;" style="rounded=1;whiteSpace=wrap;html=1;strokeWidth=10;" vertex="1" parent="1">
                    <mxGeometry x="1290" y="1920" width="410" height="60" as="geometry"/>
                </mxCell>
                <mxCell id="62" value="&lt;b&gt;&lt;font style=&quot;font-size: 21px&quot;&gt;Product Fragment&lt;/font&gt;&lt;/b&gt;" style="text;html=1;strokeColor=none;fillColor=none;align=center;verticalAlign=middle;whiteSpace=wrap;rounded=0;dashed=1;" vertex="1" parent="1">
                    <mxGeometry x="1240" y="1680" width="190" height="20" as="geometry"/>
                </mxCell>
                <mxCell id="64" value="" style="rounded=0;whiteSpace=wrap;html=1;strokeWidth=4;dashed=1;fillColor=none;" vertex="1" parent="1">
                    <mxGeometry x="1883" y="1710" width="180" height="420" as="geometry"/>
                </mxCell>
                <mxCell id="65" value="" style="ellipse;whiteSpace=wrap;html=1;aspect=fixed;strokeWidth=10;" vertex="1" parent="1">
                    <mxGeometry x="1943" y="1820" width="80" height="80" as="geometry"/>
                </mxCell>
                <mxCell id="66" value="" style="ellipse;whiteSpace=wrap;html=1;aspect=fixed;strokeWidth=10;" vertex="1" parent="1">
                    <mxGeometry x="1943" y="1920" width="80" height="80" as="geometry"/>
                </mxCell>
                <mxCell id="67" value="" style="ellipse;whiteSpace=wrap;html=1;aspect=fixed;strokeWidth=10;" vertex="1" parent="1">
                    <mxGeometry x="1943" y="2020" width="80" height="80" as="geometry"/>
                </mxCell>
                <mxCell id="68" value="&lt;b&gt;&lt;font style=&quot;font-size: 24px&quot;&gt;Recommended for you&lt;/font&gt;&lt;/b&gt;" style="text;html=1;strokeColor=none;fillColor=none;align=center;verticalAlign=middle;whiteSpace=wrap;rounded=0;" vertex="1" parent="1">
                    <mxGeometry x="1883" y="1715" width="180" height="70" as="geometry"/>
                </mxCell>
                <mxCell id="69" value="&lt;b&gt;&lt;font style=&quot;font-size: 21px&quot;&gt;Inspire Team&lt;/font&gt;&lt;/b&gt;" style="text;html=1;strokeColor=none;fillColor=none;align=center;verticalAlign=middle;whiteSpace=wrap;rounded=0;dashed=1;" vertex="1" parent="1">
                    <mxGeometry x="1875" y="2140" width="150" height="20" as="geometry"/>
                </mxCell>
                <mxCell id="93" style="edgeStyle=orthogonalEdgeStyle;rounded=0;orthogonalLoop=1;jettySize=auto;html=1;exitX=0.5;exitY=0;exitDx=0;exitDy=0;" edge="1" parent="1" source="71" target="28">
                    <mxGeometry relative="1" as="geometry"/>
                </mxCell>
                <mxCell id="94" value="&lt;font&gt;&lt;font style=&quot;font-size: 24px&quot;&gt;Render&lt;/font&gt;&lt;br&gt;&lt;/font&gt;" style="edgeLabel;html=1;align=center;verticalAlign=middle;resizable=0;points=[];" vertex="1" connectable="0" parent="93">
                    <mxGeometry x="-0.2969" y="-3" relative="1" as="geometry">
                        <mxPoint as="offset"/>
                    </mxGeometry>
                </mxCell>
                <mxCell id="71" value="&lt;span style=&quot;font-size: 26px&quot;&gt;Composite&lt;br&gt;Server&lt;br&gt;&lt;/span&gt;" style="shape=hexagon;perimeter=hexagonPerimeter2;whiteSpace=wrap;html=1;fixedSize=1;" vertex="1" parent="1">
                    <mxGeometry x="1440" y="1130" width="130" height="130" as="geometry"/>
                </mxCell>
                <mxCell id="72" value="" style="rounded=0;whiteSpace=wrap;html=1;strokeWidth=4;dashed=1;fillColor=none;" vertex="1" parent="1">
                    <mxGeometry x="2293" y="850" width="180" height="420" as="geometry"/>
                </mxCell>
                <mxCell id="73" value="" style="rounded=0;whiteSpace=wrap;html=1;strokeWidth=4;dashed=1;fillColor=none;" vertex="1" parent="1">
                    <mxGeometry x="1683" y="940" width="540" height="320" as="geometry"/>
                </mxCell>
                <mxCell id="74" value="" style="rounded=0;whiteSpace=wrap;html=1;strokeWidth=4;dashed=1;fillColor=none;" vertex="1" parent="1">
                    <mxGeometry x="1683" y="850" width="540" height="80" as="geometry"/>
                </mxCell>
                <mxCell id="75" value="&lt;font color=&quot;#000000&quot;&gt;&lt;span style=&quot;font-size: 24px&quot;&gt;&lt;b&gt;Please enter keywords ...&lt;/b&gt;&lt;/span&gt;&lt;/font&gt;" style="rounded=1;arcSize=9;fillColor=#F7F8F9;align=left;spacingLeft=5;strokeColor=#DEE1E6;html=1;strokeWidth=2;fontSize=12" vertex="1" parent="1">
                    <mxGeometry x="1733" y="870" width="400" height="40" as="geometry"/>
                </mxCell>
                <mxCell id="76" value="" style="html=1;verticalLabelPosition=bottom;align=center;labelBackgroundColor=#ffffff;verticalAlign=top;strokeWidth=10;shadow=0;dashed=0;shape=mxgraph.ios7.icons.looking_glass;" vertex="1" parent="1">
                    <mxGeometry x="2163" y="872.5" width="40" height="37.5" as="geometry"/>
                </mxCell>
                <mxCell id="77" value="&lt;b&gt;&lt;font style=&quot;font-size: 24px&quot;&gt;Product 1&lt;/font&gt;&lt;/b&gt;" style="rounded=1;whiteSpace=wrap;html=1;strokeWidth=10;" vertex="1" parent="1">
                    <mxGeometry x="1733" y="970" width="410" height="60" as="geometry"/>
                </mxCell>
                <mxCell id="78" value="&lt;span&gt;&lt;b&gt;&lt;font style=&quot;font-size: 24px&quot;&gt;Product 2&lt;/font&gt;&lt;/b&gt;&lt;/span&gt;" style="rounded=1;whiteSpace=wrap;html=1;strokeWidth=10;" vertex="1" parent="1">
                    <mxGeometry x="1733" y="1060" width="410" height="60" as="geometry"/>
                </mxCell>
                <mxCell id="79" value="&lt;span&gt;&lt;b&gt;&lt;font style=&quot;font-size: 24px&quot;&gt;Product 3&lt;/font&gt;&lt;/b&gt;&lt;/span&gt;" style="rounded=1;whiteSpace=wrap;html=1;strokeWidth=10;" vertex="1" parent="1">
                    <mxGeometry x="1733" y="1150" width="410" height="60" as="geometry"/>
                </mxCell>
                <mxCell id="80" value="" style="ellipse;whiteSpace=wrap;html=1;aspect=fixed;strokeWidth=10;" vertex="1" parent="1">
                    <mxGeometry x="2353" y="960" width="80" height="80" as="geometry"/>
                </mxCell>
                <mxCell id="81" value="" style="ellipse;whiteSpace=wrap;html=1;aspect=fixed;strokeWidth=10;" vertex="1" parent="1">
                    <mxGeometry x="2353" y="1060" width="80" height="80" as="geometry"/>
                </mxCell>
                <mxCell id="82" value="" style="ellipse;whiteSpace=wrap;html=1;aspect=fixed;strokeWidth=10;" vertex="1" parent="1">
                    <mxGeometry x="2353" y="1160" width="80" height="80" as="geometry"/>
                </mxCell>
                <mxCell id="83" value="&lt;b&gt;&lt;font style=&quot;font-size: 24px&quot;&gt;Recommended for you&lt;/font&gt;&lt;/b&gt;" style="text;html=1;strokeColor=none;fillColor=none;align=center;verticalAlign=middle;whiteSpace=wrap;rounded=0;" vertex="1" parent="1">
                    <mxGeometry x="2293" y="855" width="180" height="70" as="geometry"/>
                </mxCell>
                <mxCell id="89" value="" style="rounded=0;whiteSpace=wrap;html=1;strokeWidth=4;fillColor=none;dashed=1;" vertex="1" parent="1">
                    <mxGeometry x="1640" y="810" width="840" height="520" as="geometry"/>
                </mxCell>
                <mxCell id="91" value="&lt;b&gt;&lt;font style=&quot;font-size: 21px&quot;&gt;Composite Fragment&lt;/font&gt;&lt;/b&gt;" style="text;html=1;strokeColor=none;fillColor=none;align=center;verticalAlign=middle;whiteSpace=wrap;rounded=0;dashed=1;" vertex="1" parent="1">
                    <mxGeometry x="1640" y="790" width="215" height="20" as="geometry"/>
                </mxCell>
                <mxCell id="102" style="edgeStyle=orthogonalEdgeStyle;rounded=0;orthogonalLoop=1;jettySize=auto;html=1;exitX=0.5;exitY=0;exitDx=0;exitDy=0;fontColor=none;" edge="1" parent="1" source="100" target="71">
                    <mxGeometry relative="1" as="geometry"/>
                </mxCell>
                <mxCell id="103" value="&lt;span style=&quot;font-size: 24px&quot;&gt;Render&lt;/span&gt;" style="edgeLabel;html=1;align=center;verticalAlign=middle;resizable=0;points=[];labelBackgroundColor=#000000;" vertex="1" connectable="0" parent="102">
                    <mxGeometry x="-0.8262" y="6" relative="1" as="geometry">
                        <mxPoint x="1" as="offset"/>
                    </mxGeometry>
                </mxCell>
                <mxCell id="100" value="&lt;span style=&quot;font-size: 28px&quot;&gt;Inspire Server&lt;/span&gt;" style="shape=hexagon;perimeter=hexagonPerimeter2;whiteSpace=wrap;html=1;fixedSize=1;" vertex="1" parent="1">
                    <mxGeometry x="1908" y="1540" width="130" height="130" as="geometry"/>
                </mxCell>
            </root>
        </mxGraphModel>
    </diagram>
</mxfile>